<svg width="45" height="45" viewBox="0 0 45 45" fill="none" xmlns="http://www.w3.org/2000/svg">
<rect width="45" height="45" rx="22.5" transform="matrix(-1 0 0 1 45 0)" fill="#F6F6F6"/>
<g clip-path="url(#clip0_23_27717)">
<mask id="mask0_23_27717" style="mask-type:luminance" maskUnits="userSpaceOnUse" x="15" y="11" width="15" height="23">
<path d="M15.875 11.25H29.375V33.75H15.875V11.25Z" fill="white"/>
</mask>
<g mask="url(#mask0_23_27717)">
<path d="M20.1349 22.5L28.2987 30.5776C28.8912 31.1639 28.8912 32.1211 28.2987 32.7074C27.7149 33.285 26.775 33.285 26.1913 32.7074L18.005 24.6075L15.875 22.5L18.005 20.3925L26.1913 12.2926C26.775 11.715 27.7149 11.715 28.2987 12.2926C28.8912 12.8789 28.8912 13.8361 28.2987 14.4224L20.1349 22.5Z" fill="#A72536"/>
</g>
</g>
<defs>
<clipPath id="clip0_23_27717">
<rect width="14" height="23" fill="white" transform="matrix(-1 0 0 1 29.5 11)"/>
</clipPath>
</defs>
</svg>
