<svg width="16" height="14" viewBox="0 0 16 14" fill="none" xmlns="http://www.w3.org/2000/svg">
<path d="M3 11.8333V12.25C3 12.5972 2.87847 12.8923 2.63542 13.1354C2.39236 13.3784 2.09722 13.5 1.75 13.5C1.40278 13.5 1.10764 13.3784 0.864583 13.1354C0.621528 12.8923 0.5 12.5972 0.5 12.25V6.29163C0.5 6.1944 0.506944 6.09718 0.520833 5.99996C0.534722 5.90274 0.555556 5.81246 0.583333 5.72913L2.14583 1.29163C2.25694 0.958293 2.45833 0.687459 2.75 0.479126C3.04167 0.270793 3.36806 0.166626 3.72917 0.166626H12.2708C12.6319 0.166626 12.9583 0.270793 13.25 0.479126C13.5417 0.687459 13.7431 0.958293 13.8542 1.29163L15.4167 5.72913C15.4444 5.81246 15.4653 5.90274 15.4792 5.99996C15.4931 6.09718 15.5 6.1944 15.5 6.29163V12.25C15.5 12.5972 15.3785 12.8923 15.1354 13.1354C14.8924 13.3784 14.5972 13.5 14.25 13.5C13.9028 13.5 13.6076 13.3784 13.3646 13.1354C13.1215 12.8923 13 12.5972 13 12.25V11.8333H3ZM2.83333 4.33329H13.1667L12.2917 1.83329H3.70833L2.83333 4.33329ZM4.25 9.33329C4.59722 9.33329 4.89236 9.21177 5.13542 8.96871C5.37847 8.72565 5.5 8.43052 5.5 8.08329C5.5 7.73607 5.37847 7.44093 5.13542 7.19788C4.89236 6.95482 4.59722 6.83329 4.25 6.83329C3.90278 6.83329 3.60764 6.95482 3.36458 7.19788C3.12153 7.44093 3 7.73607 3 8.08329C3 8.43052 3.12153 8.72565 3.36458 8.96871C3.60764 9.21177 3.90278 9.33329 4.25 9.33329ZM11.75 9.33329C12.0972 9.33329 12.3924 9.21177 12.6354 8.96871C12.8785 8.72565 13 8.43052 13 8.08329C13 7.73607 12.8785 7.44093 12.6354 7.19788C12.3924 6.95482 12.0972 6.83329 11.75 6.83329C11.4028 6.83329 11.1076 6.95482 10.8646 7.19788C10.6215 7.44093 10.5 7.73607 10.5 8.08329C10.5 8.43052 10.6215 8.72565 10.8646 8.96871C11.1076 9.21177 11.4028 9.33329 11.75 9.33329Z" fill="#584B4D"/>
</svg>
