<svg width="237" height="42" viewBox="0 0 237 42" fill="none" xmlns="http://www.w3.org/2000/svg">
<g clip-path="url(#clip0_23_27760)">
<g clip-path="url(#clip1_23_27760)">
<g clip-path="url(#clip2_23_27760)">
<path d="M46.804 14.9655H44.7646V23.1691H41.4795V0.560791H47.3208C51.6486 0.560791 54.1033 3.1446 54.1033 7.62936C54.1033 11.1544 52.6176 13.5721 50.0338 14.5134L54.943 23.1691H51.3533L46.804 14.9655ZM44.7646 11.865H47.2838C49.5816 11.865 50.772 10.3793 50.772 7.69395C50.772 5.00864 49.5816 3.66136 47.3208 3.66136H44.7646V11.865Z" fill="#2B2B2B"/>
<path d="M68.8308 17.8343C68.5355 21.4517 66.3116 23.5187 62.6296 23.5187C58.9477 23.5187 56.8438 21.1933 56.8438 17.1238V12.0577C56.8438 8.01586 59.0769 5.73657 62.7035 5.73657C66.33 5.73657 68.6462 8.02509 68.6462 12.0669V15.8873H59.9812V17.1792C59.9812 19.4954 60.9778 20.5473 62.7496 20.5473C64.6506 20.5473 65.4626 19.7076 65.7487 17.862L68.8308 17.8343ZM59.9812 12.0208V13.4788H65.518V12.0208C65.518 9.69534 64.4844 8.66181 62.7496 8.66181C61.0148 8.66181 59.9812 9.69534 59.9812 12.0208Z" fill="#2B2B2B"/>
<path d="M70.8335 17.9358H73.9341C73.9154 18.2813 73.9651 18.6271 74.0803 18.9533C74.1955 19.2796 74.3739 19.5799 74.6054 19.8371C74.8368 20.0942 75.1167 20.3032 75.4291 20.452C75.7414 20.6008 76.0801 20.6865 76.4256 20.7042C76.5729 20.718 76.7212 20.718 76.8685 20.7042C78.5203 20.7042 79.4524 19.9014 79.4524 18.5726C79.4524 15.149 71.0919 16.3117 71.0919 10.4982C71.0919 7.58215 73.2512 5.73657 76.5456 5.73657C80.1629 5.73657 82.0823 7.99741 82.193 11.1626H79.1663C79.2336 10.5422 79.0516 9.92044 78.6605 9.43416C78.2694 8.94788 77.7012 8.63687 77.0808 8.56954C76.9029 8.55107 76.7235 8.55107 76.5456 8.56954C75.0599 8.56954 74.1555 9.30777 74.1555 10.5074C74.1555 13.7372 82.5529 12.4729 82.5529 18.5818C82.5529 21.5809 80.4213 23.5833 76.8962 23.5833C73.0574 23.5833 70.8612 21.0641 70.8335 17.9358Z" fill="#2B2B2B"/>
<path d="M92.8235 20.4178V23.3615H91.6331C88.2372 23.3615 86.2347 21.1929 86.2347 17.6771V8.9844H83.8447V6.14221H86.2347V2.10962H89.3353V6.14221H92.5005V8.9844H89.3353V17.7324C89.3353 19.578 90.1105 20.4454 91.7899 20.4454L92.8235 20.4178Z" fill="#2B2B2B"/>
<path d="M106.425 11.8653V23.1695H103.869L103.648 21.5823C103.255 22.2254 102.697 22.7508 102.031 23.1032C101.365 23.4556 100.617 23.622 99.8642 23.5847C98.5593 23.6631 97.2765 23.2218 96.2961 22.3573C95.3157 21.4927 94.7174 20.2752 94.6319 18.9708C94.6181 18.7649 94.6181 18.5584 94.6319 18.3525C94.6319 14.8644 97.0589 13.0834 100.805 13.0834H103.306V11.8653C103.306 9.86286 102.568 8.72783 100.852 8.72783C100.539 8.70132 100.224 8.73695 99.9247 8.83268C99.6256 8.92841 99.3485 9.08235 99.1092 9.28562C98.8699 9.48889 98.6732 9.73749 98.5303 10.0171C98.3875 10.2967 98.3014 10.6018 98.277 10.9148C98.2725 10.9392 98.2725 10.9643 98.277 10.9887H95.1487C95.3056 7.73121 97.5018 5.72876 100.925 5.72876C104.552 5.73799 106.425 7.95268 106.425 11.8653ZM103.306 15.7687H100.824C98.9137 15.7687 97.8156 16.6454 97.8156 18.3248C97.8156 20.0043 98.8214 20.8071 100.529 20.8071C100.866 20.8336 101.206 20.7932 101.528 20.6883C101.85 20.5834 102.148 20.416 102.405 20.1957C102.662 19.9754 102.873 19.7065 103.026 19.4045C103.179 19.1025 103.271 18.7732 103.297 18.4356C103.306 18.3219 103.306 18.2078 103.297 18.0941L103.306 15.7687Z" fill="#2B2B2B"/>
<path d="M121.568 6.14282V23.1683H119.344L118.994 21.2581C118.572 21.9994 117.952 22.6091 117.205 23.0196C116.457 23.4301 115.61 23.6253 114.758 23.5835C111.824 23.5835 109.978 21.4888 109.978 16.838V6.14282H113.116V16.6719C113.116 19.4402 113.854 20.6122 115.506 20.6122C117.157 20.6122 118.412 19.1911 118.412 16.6719V6.14282H121.568Z" fill="#2B2B2B"/>
<path d="M134.035 6.01304V9.11361C133.362 8.83812 132.639 8.70611 131.913 8.72604C129.781 8.72604 128.425 10.1195 128.425 12.6664V23.1677H125.287V6.14223H127.52L127.871 8.117C128.532 7.1464 129.491 6.4166 130.602 6.03721C131.714 5.65783 132.918 5.64935 134.035 6.01304Z" fill="#2B2B2B"/>
<path d="M147.083 11.8653V23.1695H144.537L144.306 21.5823C143.917 22.2267 143.361 22.7534 142.696 23.1061C142.031 23.4588 141.283 23.6243 140.532 23.5847C139.226 23.6656 137.942 23.2252 136.961 22.3601C135.98 21.495 135.382 20.2761 135.299 18.9708C135.281 18.7589 135.281 18.5459 135.299 18.3341C135.299 14.8459 137.717 13.0649 141.464 13.0649H143.955V11.8653C143.955 9.86286 143.208 8.72783 141.501 8.72783C140.872 8.67413 140.247 8.87241 139.764 9.27907C139.281 9.68572 138.98 10.2675 138.926 10.8964C138.921 10.927 138.921 10.9581 138.926 10.9887H135.788C135.955 7.73121 138.151 5.72876 141.574 5.72876C145.21 5.73799 147.083 7.95268 147.083 11.8653ZM143.955 15.7687H141.464C139.563 15.7687 138.465 16.6454 138.465 18.3248C138.465 20.0043 139.461 20.8071 141.178 20.8071C141.861 20.8554 142.536 20.6312 143.055 20.1833C143.574 19.7355 143.894 19.1005 143.946 18.4171C143.946 18.3064 143.946 18.2049 143.946 18.0941L143.955 15.7687Z" fill="#2B2B2B"/>
<path d="M162.365 12.4738V23.1689H159.237V12.6399C159.237 9.87154 158.489 8.6996 156.847 8.6996C155.066 8.6996 153.94 10.1207 153.94 12.6399V23.1689H150.802V6.14347H153.035L153.358 8.05364C153.783 7.3112 154.406 6.70143 155.157 6.29242C155.908 5.88341 156.758 5.69127 157.612 5.73744C160.519 5.73744 162.365 7.82295 162.365 12.4738Z" fill="#2B2B2B"/>
<path d="M173.503 20.4178V23.3615H172.312C168.916 23.3615 166.914 21.1929 166.914 17.6771V8.9844H164.524V6.14221H166.914V2.10962H170.015V6.14221H173.18V8.9844H170.015V17.7324C170.015 19.578 170.79 20.4454 172.469 20.4454L173.503 20.4178Z" fill="#2B2B2B"/>
<path d="M182.869 16.4507V7.22277C182.869 2.60882 185.388 0.181885 189.495 0.181885C193.601 0.181885 195.954 2.60882 196.083 7.06589H192.817C192.688 4.44517 191.525 3.31937 189.458 3.31937C187.391 3.31937 186.163 4.50977 186.163 7.25968V16.4322C186.163 19.2006 187.455 20.3725 189.55 20.3725C191.645 20.3725 193.011 19.1729 193.011 16.5891V13.7653H189.421V10.8586H196.203V16.6075C196.139 21.0369 193.592 23.5192 189.522 23.5192C185.453 23.5192 182.869 21.0369 182.869 16.4507Z" fill="#2B2B2B"/>
<path d="M210.876 6.14282V23.1683H208.643L208.32 21.2581C207.898 21.9979 207.281 22.6067 206.535 23.0171C205.789 23.4276 204.944 23.6236 204.093 23.5835C201.122 23.5835 199.276 21.4888 199.276 16.8103V6.14282H202.405V16.6719C202.405 19.4402 203.152 20.6122 204.795 20.6122C206.437 20.6122 207.701 19.1911 207.701 16.6719V6.14282H210.876Z" fill="#2B2B2B"/>
<path d="M223.343 6.01326V9.11383C222.677 8.83824 221.96 8.70618 221.239 8.72626C219.107 8.72626 217.751 10.1197 217.751 12.6666V23.1679H214.623V6.14245H216.81L217.169 8.11722C217.608 7.35171 218.252 6.72352 219.028 6.30302C219.803 5.88253 220.681 5.68634 221.562 5.73642C222.168 5.71692 222.772 5.81081 223.343 6.01326Z" fill="#2B2B2B"/>
<path d="M237 6.14282V23.1683H234.776L234.453 21.2581C234.031 21.9994 233.412 22.6091 232.664 23.0196C231.916 23.4301 231.07 23.6253 230.218 23.5835C227.283 23.5835 225.438 21.4888 225.438 16.838V6.14282H228.575V16.6719C228.575 19.4402 229.313 20.6122 230.965 20.6122C232.617 20.6122 233.872 19.1911 233.872 16.6719V6.14282H237Z" fill="#2B2B2B"/>
<path d="M49.4801 29.4163V38.9579H48.6773V30.0991H44.6539L44.4324 34.0302C44.3968 35.0677 44.2639 36.0996 44.0356 37.1123C43.9178 37.6395 43.6484 38.1206 43.2605 38.4965C42.8752 38.8005 42.3944 38.9575 41.904 38.9394H41.5718V38.2658H41.8302C42.0197 38.2705 42.2081 38.2351 42.383 38.1619C42.5579 38.0888 42.7154 37.9795 42.8452 37.8413C43.1194 37.4648 43.2998 37.0282 43.3712 36.5679C43.5313 35.6715 43.6269 34.7649 43.6573 33.8549L43.8972 29.4347L49.4801 29.4163Z" fill="#2B2B2B"/>
<path d="M53.9648 37.8043L56.0227 31.8616H56.8716L53.8541 40.1667L53.6972 40.5358C53.5198 41.0098 53.1672 41.3975 52.7121 41.6191C52.2571 41.8406 51.7343 41.8789 51.2518 41.7262V41.0802L51.6579 41.1264C51.9833 41.1184 52.2974 41.0051 52.553 40.8034C52.8394 40.5561 53.0558 40.2379 53.1805 39.8806L53.5311 38.9578L50.8643 31.9446H51.7225L53.9648 37.8043Z" fill="#2B2B2B"/>
<path d="M63.1097 38.9578H62.3253V35.9588C61.7365 36.1878 61.1115 36.3097 60.4797 36.3186C59.7456 36.3839 59.0147 36.1623 58.4404 35.7004C57.9739 35.1699 57.7351 34.477 57.776 33.7717V31.8616H58.5511V33.7072C58.5056 34.2436 58.6711 34.7766 59.0125 35.1928C59.2166 35.3614 59.4524 35.4875 59.706 35.5636C59.9595 35.6396 60.2258 35.6642 60.489 35.6358C61.1183 35.6197 61.7411 35.5044 62.3346 35.2943V31.8616H63.1189L63.1097 38.9578Z" fill="#2B2B2B"/>
<path d="M66.0349 31.8616V38.2657H69.1631V31.8616H69.9383V38.2657H73.0573V31.8616H73.8417V38.9578H65.2505V31.8616H66.0349Z" fill="#2B2B2B"/>
<path d="M80.4578 31.8616H81.2422V38.9578H80.4578V33.1258L76.6467 38.9578H75.8716V31.8616H76.6467V37.6751L80.4578 31.8616Z" fill="#2B2B2B"/>
<path d="M86.0683 39.0584C85.4962 39.0658 84.9334 38.9123 84.4442 38.6155C83.9556 38.3201 83.5617 37.891 83.3092 37.3789C83.0329 36.8265 82.8936 36.2156 82.9032 35.5979V35.3119C82.8903 34.6742 83.0262 34.0423 83.3 33.4663C83.5395 32.9449 83.9198 32.5006 84.3981 32.1836C84.8522 31.8824 85.385 31.7219 85.9299 31.7222C86.3178 31.7099 86.7033 31.7866 87.0569 31.9466C87.4104 32.1066 87.7225 32.3455 87.9693 32.645C88.508 33.3245 88.7774 34.1787 88.726 35.0443V35.4872H83.6783V35.6349C83.6525 36.3651 83.8992 37.0789 84.3704 37.6373C84.5808 37.8927 84.846 38.0975 85.1463 38.2365C85.4466 38.3754 85.7744 38.445 86.1053 38.4401C86.4865 38.4422 86.8639 38.3636 87.2126 38.2094C87.5751 38.0412 87.8917 37.788 88.1354 37.4712L88.6245 37.8496C88.339 38.2546 87.9536 38.5788 87.5056 38.7906C87.0577 39.0025 86.5625 39.0947 86.0683 39.0584ZM85.9299 32.3959C85.6504 32.3906 85.3731 32.4455 85.1167 32.557C84.8603 32.6685 84.631 32.8338 84.4442 33.0418C84.0197 33.5268 83.7611 34.1345 83.706 34.7767H87.9508V34.6936C87.9513 34.09 87.7463 33.5042 87.3695 33.0326C87.1913 32.8269 86.9699 32.6631 86.721 32.5531C86.4721 32.443 86.202 32.3893 85.9299 32.3959Z" fill="#2B2B2B"/>
<path d="M99.1814 35.469C99.2367 36.3994 98.9802 37.3216 98.4524 38.0897C98.2245 38.3894 97.9276 38.6297 97.5871 38.7903C97.2466 38.9509 96.8724 39.0272 96.4961 39.0125C96.0711 39.0352 95.6468 38.9548 95.2596 38.778C94.8723 38.6013 94.5336 38.3335 94.2722 37.9975V41.5963H93.4971V31.8609H94.2168V32.8575C94.4566 32.4938 94.7868 32.1988 95.1751 32.0014C95.5634 31.804 95.9964 31.7111 96.4315 31.7317C96.8124 31.7126 97.1921 31.7866 97.5378 31.9474C97.8836 32.1082 98.1848 32.3509 98.4155 32.6545C98.9397 33.4413 99.1925 34.3777 99.1353 35.3214L99.1814 35.469ZM98.3971 35.3306C98.4356 34.5772 98.2424 33.83 97.8434 33.1897C97.6692 32.9418 97.4367 32.7405 97.1663 32.6037C96.896 32.4669 96.5961 32.3988 96.2931 32.4054C95.8567 32.3914 95.4268 32.5148 95.0642 32.7582C94.7017 33.0016 94.4246 33.3526 94.2722 33.7619V37.1116C94.4396 37.4938 94.7197 37.8157 95.075 38.0344C95.4493 38.2545 95.8774 38.3663 96.3116 38.3574C96.6149 38.3682 96.9159 38.3008 97.1858 38.1619C97.4556 38.0229 97.6853 37.817 97.8526 37.5638C98.252 36.89 98.4416 36.1126 98.3971 35.3306Z" fill="#2B2B2B"/>
<path d="M103.657 39.0584C103.082 39.0661 102.516 38.9126 102.023 38.6155C101.535 38.3201 101.141 37.891 100.888 37.3789C100.612 36.8265 100.473 36.2156 100.482 35.5979V35.3119C100.475 34.6748 100.611 34.0441 100.879 33.4663C101.128 32.9478 101.51 32.505 101.987 32.1836C102.438 31.8842 102.967 31.7237 103.509 31.7222C103.897 31.7099 104.283 31.7866 104.636 31.9466C104.99 32.1066 105.302 32.3455 105.549 32.645C106.087 33.3245 106.357 34.1787 106.305 35.0443V35.4872H101.267V35.6349C101.238 36.3639 101.482 37.0775 101.95 37.6373C102.16 37.8927 102.425 38.0975 102.726 38.2365C103.026 38.3754 103.354 38.445 103.684 38.4401C104.066 38.4466 104.444 38.3678 104.792 38.2094C105.154 38.0412 105.471 37.788 105.715 37.4712L106.204 37.8496C105.92 38.2545 105.537 38.5788 105.09 38.7908C104.644 39.0027 104.15 39.0949 103.657 39.0584ZM103.509 32.3959C103.23 32.3906 102.952 32.4455 102.696 32.557C102.44 32.6685 102.21 32.8338 102.023 33.0418C101.599 33.5268 101.34 34.1345 101.285 34.7767H105.53V34.6936C105.537 34.089 105.331 33.5012 104.949 33.0326C104.771 32.8269 104.549 32.6631 104.3 32.5531C104.051 32.443 103.781 32.3893 103.509 32.3959Z" fill="#2B2B2B"/>
<path d="M110.439 38.4044C110.938 38.4217 111.427 38.2578 111.814 37.943C111.992 37.7964 112.137 37.6136 112.239 37.4068C112.341 37.1999 112.397 36.9738 112.405 36.7434H113.162C113.145 37.1684 113.004 37.5792 112.756 37.9245C112.504 38.2844 112.164 38.5735 111.768 38.7643C111.352 38.9588 110.899 39.0596 110.439 39.0596C110.026 39.0803 109.614 39.0082 109.232 38.8485C108.85 38.6888 108.509 38.4456 108.234 38.1368C107.663 37.3968 107.375 36.4772 107.422 35.5437V35.2669C107.405 34.6318 107.531 34.0011 107.791 33.4213C108.007 32.9065 108.374 32.469 108.843 32.1663C109.323 31.8726 109.877 31.7221 110.439 31.7326C111.142 31.7062 111.827 31.9545 112.35 32.4247C112.605 32.6598 112.809 32.9451 112.948 33.2627C113.088 33.5803 113.161 33.9233 113.162 34.2703H112.405C112.403 34.0188 112.349 33.7704 112.248 33.5403C112.146 33.3102 111.999 33.1033 111.814 32.9323C111.601 32.7502 111.354 32.612 111.088 32.5255C110.821 32.439 110.54 32.4059 110.261 32.4282C109.981 32.4505 109.709 32.5277 109.459 32.6553C109.21 32.783 108.988 32.9586 108.806 33.1722C108.376 33.7997 108.168 34.5535 108.216 35.313V35.5437C108.178 36.3019 108.399 37.0502 108.843 37.6662C109.033 37.9053 109.276 38.0966 109.554 38.2248C109.831 38.353 110.134 38.4145 110.439 38.4044Z" fill="#2B2B2B"/>
<path d="M119.796 32.4986H117.222V38.9582H116.437V32.4986H113.964V31.8342H119.796V32.4986Z" fill="#2B2B2B"/>
<path d="M120.645 35.2663C120.638 34.6292 120.774 33.9986 121.042 33.4208C121.289 32.9009 121.676 32.46 122.159 32.1473C122.652 31.842 123.222 31.685 123.801 31.6952C124.231 31.6811 124.658 31.7624 125.052 31.9331C125.446 32.1038 125.797 32.3598 126.081 32.6825C126.695 33.4134 127.008 34.3501 126.957 35.3033V35.4694C126.97 36.107 126.834 36.7389 126.561 37.3149C126.323 37.8353 125.938 38.2747 125.453 38.5792C124.957 38.8762 124.389 39.0295 123.811 39.0221C123.38 39.0356 122.952 38.9541 122.556 38.7835C122.161 38.6128 121.808 38.3572 121.522 38.0347C120.898 37.307 120.569 36.3721 120.599 35.414L120.645 35.2663ZM121.43 35.4786C121.401 36.2258 121.632 36.9598 122.085 37.5549C122.268 37.7812 122.495 37.9691 122.751 38.1078C123.007 38.2465 123.288 38.3334 123.578 38.3634C123.867 38.3934 124.16 38.366 124.439 38.2826C124.718 38.1993 124.978 38.0618 125.204 37.8778C125.323 37.782 125.431 37.6737 125.527 37.5549C125.987 36.9389 126.219 36.182 126.182 35.414V35.2663C126.192 34.7547 126.088 34.2473 125.878 33.7807C125.706 33.3583 125.414 32.9957 125.038 32.7379C124.675 32.4878 124.242 32.3586 123.801 32.3688C123.472 32.3604 123.146 32.4306 122.849 32.5734C122.552 32.7162 122.293 32.9276 122.094 33.1901C121.631 33.8052 121.397 34.5619 121.43 35.3309V35.4786Z" fill="#2B2B2B"/>
<path d="M134.257 35.4697C134.312 36.4001 134.055 37.3223 133.528 38.0905C133.299 38.392 133.001 38.6335 132.659 38.7943C132.316 38.955 131.94 39.0302 131.562 39.0133C131.138 39.036 130.715 38.9555 130.33 38.7787C129.944 38.6019 129.607 38.334 129.347 37.9982V41.5971H128.563V31.8616H129.292V32.8582C129.532 32.4946 129.862 32.1995 130.25 32.0021C130.639 31.8047 131.072 31.7118 131.507 31.7324C131.889 31.7109 132.271 31.7839 132.619 31.9448C132.966 32.1057 133.269 32.3497 133.5 32.6552C134.024 33.442 134.277 34.3785 134.22 35.3221L134.257 35.4697ZM133.472 35.3313C133.511 34.5779 133.318 33.8307 132.919 33.1905C132.744 32.9425 132.512 32.7412 132.241 32.6044C131.971 32.4676 131.671 32.3995 131.368 32.4061C130.93 32.3965 130.499 32.5186 130.132 32.7567C129.773 33.0028 129.498 33.3542 129.347 33.7626V37.1123C129.515 37.4945 129.795 37.8164 130.15 38.0351C130.521 38.2563 130.946 38.3683 131.377 38.3581C131.681 38.3689 131.982 38.3016 132.252 38.1626C132.522 38.0236 132.751 37.8177 132.919 37.5645C133.325 36.8933 133.518 36.1146 133.472 35.3313Z" fill="#2B2B2B"/>
<path d="M140.449 38.9574C140.358 38.6358 140.309 38.3041 140.301 37.9701C140.024 38.3289 139.662 38.6141 139.249 38.8006C138.826 38.9914 138.366 39.089 137.902 39.0866C137.298 39.1151 136.707 38.9102 136.25 38.5145C136.047 38.3412 135.885 38.1261 135.773 37.884C135.662 37.6419 135.604 37.3784 135.604 37.1119C135.593 36.7774 135.673 36.4461 135.835 36.1535C135.998 35.8609 136.237 35.618 136.527 35.4508C137.245 35.0069 138.083 34.7972 138.926 34.851H140.338V34.0482C140.347 33.8273 140.311 33.6069 140.232 33.4005C140.152 33.1942 140.031 33.0063 139.876 32.8486C139.494 32.534 139.005 32.3787 138.511 32.4149C138.023 32.3947 137.543 32.5448 137.154 32.8394C136.991 32.9524 136.858 33.1026 136.765 33.2775C136.672 33.4524 136.622 33.6471 136.619 33.8452H135.835C135.843 33.5579 135.918 33.2764 136.054 33.0233C136.19 32.7702 136.384 32.5523 136.619 32.3872C137.172 31.9664 137.853 31.7482 138.548 31.7689C139.214 31.737 139.869 31.9467 140.393 32.3595C140.626 32.5653 140.809 32.8203 140.931 33.1061C141.052 33.3919 141.108 33.7011 141.095 34.0113V37.3518C141.066 37.872 141.142 38.3927 141.316 38.8836V38.9574H140.449ZM137.994 38.3945C138.488 38.4036 138.974 38.2724 139.397 38.0162C139.803 37.783 140.126 37.4279 140.319 37.0011V35.4232H138.926C138.284 35.3951 137.646 35.5418 137.08 35.8476C136.901 35.9538 136.749 36.1008 136.637 36.2766C136.525 36.4524 136.455 36.6522 136.435 36.8597C136.414 37.0673 136.442 37.2768 136.518 37.4713C136.593 37.6658 136.713 37.8398 136.868 37.9793C137.183 38.2424 137.584 38.3804 137.994 38.3669V38.3945Z" fill="#2B2B2B"/>
<path d="M148.587 38.9578H147.803V35.6911H143.992V38.9578H143.208V31.8616H143.992V35.0267H147.803V31.8616H148.587V38.9578Z" fill="#2B2B2B"/>
<path d="M151.541 34.4269H153.58C154.054 34.4155 154.525 34.5134 154.955 34.713C155.334 34.8765 155.655 35.1496 155.878 35.4974C156.083 35.8532 156.189 36.2583 156.182 36.6693C156.192 36.9785 156.133 37.286 156.01 37.5699C155.887 37.8538 155.704 38.1071 155.472 38.3119C154.939 38.7453 154.265 38.9657 153.58 38.9301H150.812V31.8616H151.596L151.541 34.4269ZM151.541 35.0913V38.2657H153.561C154.042 38.295 154.516 38.1436 154.89 37.8412C155.041 37.6904 155.161 37.5113 155.243 37.3142C155.324 37.1171 155.366 36.9058 155.366 36.6924C155.366 36.479 155.324 36.2677 155.243 36.0706C155.161 35.8734 155.041 35.6943 154.89 35.5435C154.538 35.2372 154.083 35.0756 153.617 35.0913H151.541ZM158.545 38.9578H157.751V31.8616H158.535L158.545 38.9578Z" fill="#2B2B2B"/>
<path d="M167.901 37.8689L170.67 31.8616H171.639V38.9578H170.854V33.1258L168.169 38.9578H167.606L164.838 33.0243V38.9578H164.062V31.8616H165.133L167.901 37.8689Z" fill="#2B2B2B"/>
<path d="M178.403 31.8616H179.187V38.9578H178.403V33.1258L174.592 38.9578H173.808V31.8616H174.592V37.6751L178.403 31.8616Z" fill="#2B2B2B"/>
<path d="M186.967 35.469C187.014 36.3998 186.754 37.3203 186.228 38.0897C186.002 38.3911 185.705 38.6327 185.365 38.7935C185.024 38.9543 184.649 39.0295 184.272 39.0125C183.847 39.0352 183.423 38.9548 183.035 38.778C182.648 38.6013 182.309 38.3335 182.048 37.9975V41.5963H181.273V31.8609H181.993V32.8575C182.232 32.4938 182.563 32.1988 182.951 32.0014C183.339 31.804 183.772 31.7111 184.207 31.7317C184.588 31.7126 184.968 31.7866 185.314 31.9474C185.659 32.1082 185.961 32.3509 186.191 32.6545C186.718 33.4404 186.974 34.3768 186.92 35.3214L186.967 35.469ZM186.182 35.3306C186.225 34.5754 186.028 33.826 185.619 33.1897C185.446 32.9431 185.215 32.7426 184.946 32.6059C184.678 32.4692 184.38 32.4003 184.078 32.4054C183.64 32.3895 183.208 32.512 182.844 32.7555C182.479 32.999 182.201 33.3511 182.048 33.7619V37.1116C182.215 37.4938 182.496 37.8157 182.851 38.0344C183.225 38.2545 183.653 38.3663 184.087 38.3574C184.391 38.3682 184.692 38.3008 184.962 38.1619C185.232 38.0229 185.461 37.817 185.629 37.5638C186.035 36.8926 186.228 36.1139 186.182 35.3306Z" fill="#2B2B2B"/>
<path d="M193.158 38.9574C193.065 38.6362 193.012 38.3045 193.001 37.9701C192.731 38.3319 192.372 38.6179 191.959 38.8006C191.535 38.9914 191.076 39.089 190.611 39.0866C190.008 39.1151 189.416 38.9102 188.96 38.5145C188.757 38.3365 188.596 38.1161 188.487 37.869C188.379 37.6219 188.326 37.354 188.332 37.0842C188.319 36.7606 188.392 36.4393 188.542 36.1526C188.693 35.8659 188.917 35.6239 189.19 35.4508C189.905 35.007 190.741 34.7973 191.58 34.851H193.001V34.0482C193.014 33.8261 192.979 33.6039 192.898 33.3968C192.816 33.1898 192.691 33.0027 192.531 32.8486C192.15 32.5379 191.665 32.383 191.174 32.4149C190.687 32.3947 190.207 32.5448 189.818 32.8394C189.653 32.9507 189.519 33.1005 189.425 33.2758C189.332 33.4512 189.283 33.6466 189.283 33.8452H188.498C188.506 33.5579 188.582 33.2764 188.718 33.0233C188.854 32.7702 189.047 32.5523 189.283 32.3872C189.834 31.9623 190.516 31.7436 191.211 31.7689C191.877 31.737 192.533 31.9467 193.057 32.3595C193.28 32.5641 193.456 32.8142 193.574 33.0928C193.691 33.3714 193.748 33.672 193.74 33.9744V37.3149C193.713 37.8343 193.785 38.3542 193.952 38.8467V38.9574H193.158ZM190.704 38.3945C191.194 38.3994 191.676 38.2685 192.097 38.0162C192.504 37.783 192.826 37.4279 193.02 37.0011V35.4232H191.617C190.975 35.3951 190.337 35.5418 189.772 35.8476C189.468 36.0216 189.247 36.3088 189.155 36.6462C189.063 36.9836 189.109 37.3435 189.283 37.6471C189.351 37.7731 189.442 37.8857 189.55 37.9793C189.874 38.2466 190.285 38.3846 190.704 38.3669V38.3945Z" fill="#2B2B2B"/>
<path d="M204.813 35.469C204.869 36.3994 204.612 37.3216 204.084 38.0897C203.856 38.3894 203.559 38.6297 203.219 38.7903C202.878 38.9509 202.504 39.0272 202.128 39.0125C201.703 39.0352 201.279 38.9548 200.891 38.778C200.504 38.6013 200.165 38.3335 199.904 37.9975V41.5963H199.129V31.8609H199.849V32.8575C200.088 32.4938 200.419 32.1988 200.807 32.0014C201.195 31.804 201.628 31.7111 202.063 31.7317C202.444 31.7126 202.824 31.7866 203.17 31.9474C203.515 32.1082 203.817 32.3509 204.047 32.6545C204.598 33.4449 204.867 34.3968 204.813 35.3583V35.469ZM204.029 35.3306C204.067 34.5772 203.874 33.83 203.475 33.1897C203.301 32.9418 203.069 32.7405 202.798 32.6037C202.528 32.4669 202.228 32.3988 201.925 32.4054C201.488 32.3914 201.059 32.5148 200.696 32.7582C200.334 33.0016 200.056 33.3526 199.904 33.7619V37.1116C200.071 37.4938 200.352 37.8157 200.707 38.0344C201.081 38.2545 201.509 38.3663 201.943 38.3574C202.247 38.3682 202.548 38.3008 202.818 38.1619C203.087 38.0229 203.317 37.817 203.484 37.5638C203.878 36.8882 204.061 36.1107 204.01 35.3306H204.029Z" fill="#2B2B2B"/>
<path d="M211.688 31.8616V38.9578H210.904V36.0787H208.707L206.982 38.9578H206.114L207.895 36.0141C207.444 35.9097 207.045 35.648 206.769 35.2759C206.499 34.9071 206.356 34.4599 206.363 34.0024C206.353 33.7097 206.41 33.4185 206.53 33.1512C206.65 32.884 206.83 32.648 207.055 32.4614C207.586 32.0631 208.238 31.8609 208.901 31.8893L211.688 31.8616ZM207.148 33.984C207.142 34.1712 207.174 34.3577 207.242 34.5322C207.31 34.7067 207.413 34.8655 207.545 34.9991C207.691 35.1379 207.863 35.2462 208.052 35.3175C208.24 35.3888 208.441 35.4217 208.643 35.4143H210.904V32.4983H208.901C208.439 32.4701 207.983 32.6112 207.618 32.8951C207.459 33.0263 207.334 33.1935 207.252 33.3828C207.17 33.5721 207.134 33.7782 207.148 33.984Z" fill="#2B2B2B"/>
<path d="M213.635 38.2657L213.976 37.8228C214.587 36.8431 214.907 35.7104 214.899 34.5561L215.019 31.8616H219.199V38.2657H219.928V41.0341H219.153V38.9578H213.838V41.0341H213.118V38.2657H213.635ZM214.558 38.2657H218.47V32.5906H215.794L215.711 34.4362C215.733 35.8056 215.32 37.1467 214.53 38.2657H214.558Z" fill="#2B2B2B"/>
<path d="M221.036 35.2671C221.023 34.6295 221.159 33.9976 221.433 33.4216C221.675 32.8953 222.067 32.4515 222.559 32.1449C223.051 31.8383 223.622 31.6822 224.201 31.6959C224.632 31.6786 225.062 31.7582 225.458 31.9292C225.854 32.1001 226.206 32.3578 226.49 32.6833C227.099 33.4165 227.412 34.3516 227.366 35.3041V35.4702C227.373 36.1073 227.238 36.7379 226.969 37.3157C226.728 37.8364 226.34 38.2757 225.853 38.58C225.357 38.877 224.788 39.0303 224.21 39.0229C223.778 39.0371 223.348 38.956 222.951 38.7853C222.554 38.6147 222.2 38.3587 221.912 38.0355C221.304 37.3015 220.992 36.367 221.036 35.4148V35.2671ZM221.82 35.4794C221.791 36.2265 222.023 36.9606 222.475 37.5557C222.843 38.0108 223.375 38.3014 223.957 38.3637C224.538 38.426 225.121 38.2548 225.576 37.8879C225.696 37.7865 225.807 37.6754 225.908 37.5557C226.368 36.9397 226.6 36.1828 226.563 35.4148V35.2671C226.572 34.7565 226.471 34.25 226.268 33.7814C226.091 33.3625 225.8 33.0014 225.428 32.7387C224.968 32.434 224.41 32.3116 223.865 32.3952C223.319 32.4787 222.824 32.7624 222.475 33.1909C222.015 33.8068 221.784 34.5637 221.82 35.3317V35.4794Z" fill="#2B2B2B"/>
<path d="M232.875 37.8689L235.643 31.8616H236.566V38.9578H235.782V33.1258L233.013 38.9301H232.497L229.728 32.9966V38.9578H228.953V31.8616H229.977L232.875 37.8689Z" fill="#2B2B2B"/>
</g>
</g>
</g>
<path d="M18.5537 8.5395V4.9905L19.1757 5.985C20.1864 7.467 21.2166 8.9295 22.2468 10.4115L22.6356 10.9965C22.7482 11.1503 22.9109 11.2597 23.0954 11.306C23.2799 11.3523 23.4748 11.3325 23.6463 11.25L27.9809 9.729L32.782 8.091C33.2288 7.89072 33.7117 7.78453 34.201 7.779C34.6056 7.77899 35.0046 7.87426 35.3658 8.05715C35.7271 8.24004 36.0405 8.50544 36.2808 8.832C36.6937 9.34586 36.92 9.98546 36.9222 10.6455C36.9248 11.4245 36.649 12.1786 36.1447 12.771C35.6199 13.434 35.1145 14.136 34.6092 14.721C34.1038 15.306 33.4235 16.32 32.782 17.1L30.4689 20.2785C30.3742 20.3759 30.2955 20.4878 30.2357 20.61C30.1507 20.7765 30.1236 20.9668 30.1588 21.1506C30.1941 21.3343 30.2895 21.501 30.4301 21.624L31.4214 22.95L33.1125 25.134C33.5984 25.7385 34.0649 26.3625 34.5314 26.967L36.0476 28.917C36.4102 29.3365 36.6934 29.8189 36.8834 30.3405C36.8647 30.5679 36.9049 30.7962 37 31.0035V31.1985C36.9795 31.7105 36.8254 32.2081 36.5529 32.6415C36.259 33.1664 35.8004 33.579 35.2485 33.8153C34.6966 34.0516 34.0823 34.0982 33.5012 33.948C32.6654 33.7335 31.8879 33.402 31.091 33.129L26.0177 31.3545L24.074 30.6525C23.8773 30.5511 23.653 30.5172 23.4353 30.5559C23.2177 30.5947 23.0187 30.704 22.8688 30.867C22.6529 31.1124 22.4639 31.3805 22.3051 31.6665C21.6831 32.5635 21.0417 33.4605 20.3614 34.3575L17.3874 38.8035C17.135 39.3101 16.7609 39.7457 16.2989 40.071C15.9839 40.2612 15.6436 40.4057 15.2881 40.5H14.2774C13.9508 40.4113 13.6371 40.2802 13.3444 40.11C13.0223 39.907 12.7456 39.6393 12.5315 39.3239C12.3174 39.0085 12.1706 38.652 12.1004 38.277C12.0393 37.9884 12.0067 37.6945 12.0032 37.3995V17.1975C11.9719 16.2471 12.1721 15.3033 12.5863 14.448C12.9332 13.6959 13.5514 13.1036 14.3163 12.7905C14.4898 12.7046 14.6425 12.5814 14.7634 12.4298C14.8843 12.2782 14.9705 12.1017 15.016 11.913C15.1753 11.5015 15.2672 11.0669 15.2881 10.626V2.514C15.2683 2.30988 15.3095 2.10447 15.4064 1.9239C15.5033 1.74333 15.6516 1.59577 15.8324 1.5L16.4544 1.5C16.7071 1.6365 16.9598 1.734 17.0375 2.0655V10.6455C17.056 11.6252 16.7855 12.5885 16.26 13.4145C15.9609 13.8686 15.5443 14.2326 15.0549 14.4675C14.7504 14.6352 14.4852 14.8664 14.2773 15.1456C14.0694 15.4248 13.9236 15.7455 13.8498 16.086C13.746 16.5001 13.7002 16.9267 13.7137 17.3535V37.4385C13.7185 37.5854 13.7529 37.7298 13.8147 37.8631C13.8765 37.9963 13.9645 38.1157 14.0734 38.214C14.1823 38.3123 14.3099 38.3876 14.4485 38.4353C14.5871 38.483 14.7338 38.5021 14.8799 38.4915H15.1326C15.4023 38.3571 15.6207 38.138 15.7546 37.8675C15.949 37.5945 16.124 37.302 16.2989 37.029L17.3485 35.5275L20.6529 30.6525C21.0044 30.0049 21.504 29.4502 22.1108 29.034C22.7266 28.6736 23.4539 28.5555 24.1517 28.7025C24.9621 28.9344 25.76 29.2078 26.5425 29.5215L31.3242 31.179L33.9677 32.0955C34.1161 32.1448 34.276 32.147 34.4257 32.1016C34.5753 32.0562 34.7073 31.9655 34.8035 31.842C34.9134 31.7237 34.9908 31.5789 35.0282 31.4218C35.0657 31.2646 35.0619 31.1003 35.0174 30.945C34.8632 30.5958 34.6457 30.2784 34.3759 30.009C33.4235 28.7415 32.4321 27.4935 31.4797 26.226C30.5273 24.9585 29.983 24.276 29.1861 23.2425C28.8539 22.8882 28.6019 22.466 28.4476 22.0049C28.2933 21.5438 28.2402 21.0546 28.2919 20.571C28.3327 20.175 28.4659 19.7942 28.6807 19.4595C29.1861 18.7185 29.7498 18.0165 30.294 17.295C30.8383 16.5735 31.7713 15.345 32.5099 14.331L34.823 11.25C34.8848 11.1817 34.9321 11.1016 34.9622 11.0145C34.9923 10.9273 35.0044 10.835 34.9979 10.743C34.9981 10.491 34.9011 10.2488 34.7271 10.067C34.5532 9.88523 34.3159 9.77808 34.0649 9.768C33.9557 9.74785 33.8437 9.74785 33.7345 9.768L31.0132 10.743C29.0694 11.4645 26.9507 12.1665 24.9292 12.9075C24.2641 13.2018 23.5301 13.3031 22.8105 13.2C22.1538 13.127 21.5493 12.8064 21.1194 12.303C20.3614 11.2695 19.6616 10.197 18.923 9.144C18.8304 8.92526 18.7059 8.72153 18.5537 8.5395Z" fill="#2B2B2B"/>
<path d="M7.14374 1.5C7.32487 1.59607 7.47344 1.74409 7.57055 1.92522C7.66766 2.10635 7.70891 2.31241 7.68907 2.51716V10.5371C7.67742 11.1236 7.79723 11.7052 8.03964 12.2389C8.19354 12.5672 8.46463 12.8255 8.79921 12.9626C9.4053 13.2527 9.91322 13.7153 10.2599 14.2927C10.6691 14.9428 10.9224 15.6793 11 16.4444C11 16.8356 11 17.2464 11 17.6376V39.6435C11.0005 39.8568 10.9203 40.0623 10.7757 40.2184C10.6311 40.3746 10.4328 40.4697 10.221 40.4846C10.125 40.5045 10.0261 40.5051 9.92987 40.4863C9.83368 40.4675 9.74217 40.4298 9.66064 40.3752C9.57911 40.3206 9.50918 40.2503 9.45492 40.1683C9.40066 40.0864 9.36314 39.9944 9.34454 39.8978C9.32538 39.8141 9.32538 39.7272 9.34454 39.6435V17.1486C9.33971 16.4539 9.13696 15.7752 8.76025 15.1925C8.62371 14.9193 8.4148 14.6892 8.1565 14.5275C7.67166 14.2956 7.24491 13.9572 6.9078 13.5374C6.57069 13.1175 6.33183 12.627 6.20889 12.1019C6.09504 11.6539 6.02974 11.1948 6.01413 10.7327V2.5954C5.97872 2.38065 6.01023 2.16015 6.10436 1.96407C6.19849 1.768 6.35064 1.60591 6.53999 1.5L7.14374 1.5Z" fill="#2B2B2B"/>
<path d="M7 23.2284V25.3584C7 25.5177 7 25.5177 6.83551 25.4779L3.91123 24.4626C3.21671 24.2437 2.50392 24.0645 1.82768 23.8057C1.36218 23.6572 0.944207 23.3697 0.62116 22.9756C0.298113 22.5815 0.0829232 22.0967 0 21.5762L0 20.3221C0.0847885 19.9692 0.22051 19.6332 0.402089 19.3267C0.773397 18.7317 1.33296 18.3065 1.97389 18.1323C2.75979 17.8935 3.52742 17.6148 4.29504 17.356L6.98172 16.5V18.4907L5.26371 19.068L2.52219 19.9637C2.30438 20.0293 2.11819 20.1839 2.00242 20.3953C1.88666 20.6066 1.85025 20.8585 1.90078 21.0984C1.93882 21.2617 2.01663 21.4108 2.12601 21.5299C2.23538 21.6491 2.37226 21.7338 2.52219 21.7753C3.74674 22.1734 4.97128 22.5715 6.17755 22.9298C6.43754 23.0707 6.71438 23.1713 7 23.2284Z" fill="#2B2B2B"/>
<path d="M6.98209 23.5C6.71752 23.4647 6.45835 23.3856 6.21208 23.265C4.99438 22.8803 3.79459 22.453 2.63062 22.0256C2.4172 21.9553 2.23478 21.7894 2.12135 21.5625C2.00793 21.3356 1.97226 21.0652 2.02177 20.8077C2.05904 20.6324 2.13528 20.4724 2.24244 20.3445C2.34961 20.2166 2.48372 20.1257 2.63062 20.0812L5.31671 19.1197L7 18.5L6.98209 23.5Z" fill="#D61516"/>
<path d="M13.8885 6.52387V10.6652C13.8976 10.7653 13.8841 10.866 13.8489 10.9615C13.8137 11.057 13.7575 11.1454 13.6834 11.2217C13.6094 11.2979 13.519 11.3605 13.4174 11.4058C13.3159 11.4511 13.2052 11.4782 13.0917 11.4856C12.8511 11.5259 12.6023 11.4808 12.3993 11.3601C12.1962 11.2394 12.0553 11.0528 12.0071 10.841V2.48022C11.9758 2.24983 12.049 2.01785 12.2107 1.83487C12.3724 1.6519 12.6095 1.53278 12.8703 1.5035C13.1228 1.484 13.3747 1.54651 13.5786 1.67931C13.7118 1.74456 13.8217 1.84128 13.8959 1.9586C13.9702 2.07593 14.006 2.20921 13.9992 2.34348L13.8885 6.52387Z" fill="#2B2B2B"/>
<path d="M10.8885 6.52387V10.6652C10.8976 10.7653 10.8841 10.866 10.8489 10.9615C10.8137 11.057 10.7575 11.1454 10.6834 11.2217C10.6094 11.2979 10.519 11.3605 10.4174 11.4058C10.3159 11.4511 10.2052 11.4782 10.0917 11.4856C9.85114 11.5259 9.60232 11.4808 9.39926 11.3601C9.19619 11.2394 9.05527 11.0528 9.00709 10.841V2.48022C8.97578 2.24983 9.04895 2.01785 9.21066 1.83487C9.37238 1.6519 9.6095 1.53278 9.87033 1.5035C10.1228 1.484 10.3747 1.54651 10.5786 1.67931C10.7118 1.74456 10.8217 1.84128 10.8959 1.9586C10.9702 2.07593 11.006 2.20921 10.9992 2.34348L10.8885 6.52387Z" fill="#2B2B2B"/>
<path d="M18.3329 7.5C18.5156 7.67914 18.6681 7.88727 18.7845 8.11618C19.5306 9.18951 20.2375 10.2827 21.0032 11.3362C21.4196 11.8372 21.9962 12.1747 22.6328 12.2903C23.3834 12.4171 24.1542 12.3204 24.8515 12.012C26.8149 11.2567 28.9551 10.5411 30.9971 9.80569L33.7459 8.81186C33.9855 8.72913 34.2476 8.74533 34.4755 8.85696C34.7033 8.96858 34.8786 9.16662 34.9632 9.40816C34.9819 9.52 34.9819 9.63422 34.9632 9.74606C34.9697 9.83982 34.9575 9.93395 34.9271 10.0228C34.8967 10.1116 34.8489 10.1933 34.7865 10.2629L32.4304 13.3636C31.6843 14.3773 30.9185 15.3513 30.192 16.3849C29.4656 17.4184 29.0729 17.8358 28.5624 18.5912C28.3454 18.9324 28.2109 19.3205 28.1697 19.7241C28.1174 20.2171 28.1711 20.7157 28.327 21.1857C28.4829 21.6557 28.7373 22.0861 29.0729 22.4472C29.8779 23.4411 30.624 24.4349 31.3897 25.4883C32.1555 26.5418 33.3532 28.0524 34.3153 29.3444C34.5878 29.619 34.8075 29.9426 34.9632 30.2985C35.0082 30.4568 35.012 30.6242 34.9742 30.7845C34.9363 30.9447 34.8581 31.0923 34.7472 31.2128C34.65 31.3388 34.5166 31.4312 34.3655 31.4774C34.2144 31.5237 34.0528 31.5215 33.9029 31.4712L31.2327 30.537L26.4026 28.8475C25.6122 28.5277 24.8062 28.2491 23.9876 28.0127C23.2828 27.8628 22.5481 27.9832 21.926 28.3506C21.3131 28.7748 20.8085 29.3402 20.4534 30.0003L17.1156 34.9695L16.0553 36.5H15.8001C15.2896 36.5 15.1522 36.2615 15.0147 35.8441C14.9951 35.6325 14.9951 35.4196 15.0147 35.208V16.2258C15.0353 15.8078 15.1495 15.4001 15.3485 15.0332C15.4322 14.9157 15.5483 14.8258 15.6823 14.7748C16.2945 14.4023 16.8201 13.9005 17.2233 13.3037C17.6265 12.7068 17.8978 12.029 18.0188 11.3163C18.1627 10.7369 18.2482 10.1442 18.274 9.54729C18.3329 8.85161 18.274 8.27519 18.3329 7.5Z" fill="#D61516"/>
<defs>
<clipPath id="clip0_23_27760">
<rect width="237" height="42" fill="white"/>
</clipPath>
<clipPath id="clip1_23_27760">
<rect width="237" height="42" fill="white"/>
</clipPath>
<clipPath id="clip2_23_27760">
<rect width="237" height="41.6363" fill="white" transform="translate(0 0.181885)"/>
</clipPath>
</defs>
</svg>
