<svg width="20" height="20" viewBox="0 0 20 20" fill="none" xmlns="http://www.w3.org/2000/svg">
<mask id="mask0_23_20276" style="mask-type:alpha" maskUnits="userSpaceOnUse" x="0" y="0" width="20" height="20">
<rect width="20" height="20" fill="#D9D9D9"/>
</mask>
<g mask="url(#mask0_23_20276)">
<path d="M4.99997 17.9166C4.41772 17.9166 3.92493 17.715 3.52161 17.3117C3.11831 16.9083 2.91666 16.4156 2.91666 15.8333V14.5032C2.91666 14.2885 2.98851 14.1093 3.13222 13.9656C3.27591 13.8219 3.45513 13.75 3.66986 13.75H5.41666V2.65545C5.41666 2.56893 5.45165 2.51097 5.52164 2.48158C5.59161 2.4522 5.65865 2.46423 5.72276 2.51764L6.33493 3.02564C6.40758 3.08761 6.48611 3.1186 6.57051 3.1186C6.65491 3.1186 6.73343 3.08761 6.80607 3.02564L7.5048 2.45514C7.57746 2.39317 7.65598 2.36218 7.74037 2.36218C7.82477 2.36218 7.9033 2.39317 7.97595 2.45514L8.67466 3.02564C8.74731 3.08761 8.82584 3.1186 8.91024 3.1186C8.99464 3.1186 9.07316 3.08761 9.1458 3.02564L9.84453 2.45514C9.91718 2.39317 9.99571 2.36218 10.0801 2.36218C10.1645 2.36218 10.243 2.39317 10.3157 2.45514L11.0144 3.02564C11.087 3.08761 11.1656 3.1186 11.25 3.1186C11.3344 3.1186 11.4129 3.08761 11.4855 3.02564L12.1843 2.45514C12.2569 2.39317 12.3354 2.36218 12.4198 2.36218C12.5042 2.36218 12.5828 2.39317 12.6554 2.45514L13.3541 3.02564C13.4268 3.08761 13.5053 3.1186 13.5897 3.1186C13.6741 3.1186 13.7526 3.08761 13.8253 3.02564L14.524 2.45514C14.5966 2.39317 14.6752 2.36218 14.7596 2.36218C14.844 2.36218 14.9225 2.39317 14.9951 2.45514L15.6939 3.02564C15.7665 3.08761 15.845 3.1186 15.9294 3.1186C16.0138 3.1186 16.0924 3.08761 16.165 3.02564L16.7772 2.51764C16.8413 2.46423 16.9083 2.4522 16.9783 2.48158C17.0483 2.51097 17.0833 2.56893 17.0833 2.65545V15.8333C17.0833 16.4156 16.8816 16.9083 16.4783 17.3117C16.075 17.715 15.5822 17.9166 15 17.9166H4.99997ZM15 16.6666C15.2361 16.6666 15.434 16.5868 15.5937 16.4271C15.7534 16.2673 15.8333 16.0694 15.8333 15.8333V4.16664H6.66664V13.75H13.4134C13.6282 13.75 13.8074 13.8219 13.9511 13.9656C14.0948 14.1093 14.1666 14.2885 14.1666 14.5032V15.8333C14.1666 16.0694 14.2465 16.2673 14.4062 16.4271C14.5659 16.5868 14.7639 16.6666 15 16.6666ZM8.28522 6.04166H11.7628C11.9402 6.04166 12.0886 6.10149 12.2083 6.22114C12.328 6.3408 12.3878 6.48929 12.3878 6.66664C12.3878 6.84399 12.328 6.99249 12.2083 7.11214C12.0886 7.23179 11.9402 7.29162 11.7628 7.29162H8.28522C8.10787 7.29162 7.95937 7.23179 7.83972 7.11214C7.72007 6.99249 7.66024 6.84399 7.66024 6.66664C7.66024 6.48929 7.72007 6.3408 7.83972 6.22114C7.95937 6.10149 8.10787 6.04166 8.28522 6.04166ZM8.28522 8.54166H11.7628C11.9402 8.54166 12.0886 8.60149 12.2083 8.72114C12.328 8.8408 12.3878 8.9893 12.3878 9.16664C12.3878 9.34399 12.328 9.49249 12.2083 9.61214C12.0886 9.73179 11.9402 9.79162 11.7628 9.79162H8.28522C8.10787 9.79162 7.95937 9.73179 7.83972 9.61214C7.72007 9.49249 7.66024 9.34399 7.66024 9.16664C7.66024 8.9893 7.72007 8.8408 7.83972 8.72114C7.95937 8.60149 8.10787 8.54166 8.28522 8.54166ZM14.1186 7.40381C13.9145 7.40381 13.7406 7.33196 13.5969 7.18827C13.4532 7.04457 13.3814 6.8707 13.3814 6.66664C13.3814 6.46259 13.4532 6.28871 13.5969 6.14502C13.7406 6.00132 13.9145 5.92948 14.1186 5.92948C14.3226 5.92948 14.4965 6.00132 14.6402 6.14502C14.7839 6.28871 14.8557 6.46259 14.8557 6.66664C14.8557 6.8707 14.7839 7.04457 14.6402 7.18827C14.4965 7.33196 14.3226 7.40381 14.1186 7.40381ZM14.1186 9.90381C13.9145 9.90381 13.7406 9.83196 13.5969 9.68827C13.4532 9.54457 13.3814 9.3707 13.3814 9.16664C13.3814 8.96259 13.4532 8.78871 13.5969 8.64502C13.7406 8.50132 13.9145 8.42948 14.1186 8.42948C14.3226 8.42948 14.4965 8.50132 14.6402 8.64502C14.7839 8.78871 14.8557 8.96259 14.8557 9.16664C14.8557 9.3707 14.7839 9.54457 14.6402 9.68827C14.4965 9.83196 14.3226 9.90381 14.1186 9.90381ZM4.99997 16.6666H12.9167V15H4.16664V15.8333C4.16664 16.0694 4.2465 16.2673 4.40622 16.4271C4.56594 16.5868 4.76386 16.6666 4.99997 16.6666Z" fill="#584B4D"/>
</g>
</svg>
