<svg width="30" height="31" viewBox="0 0 30 31" fill="none" xmlns="http://www.w3.org/2000/svg">
<g clip-path="url(#clip0_23_13305)">
<path d="M25.7813 24.6308L19.9688 18.8183C21.3741 16.9644 21.9858 14.6283 21.6694 12.3236C21.353 10.0189 20.1343 7.93413 18.2813 6.52763C16.4335 5.11873 14.102 4.50111 11.7991 4.81051C9.49621 5.11991 7.41037 6.33101 6.00002 8.17763C4.71191 9.86455 4.07961 11.9615 4.22052 14.0793C4.36143 16.1971 5.26596 18.1919 6.76621 19.6933C8.26646 21.1947 10.2605 22.1007 12.3782 22.2433C14.4959 22.3858 16.5934 21.7551 18.2813 20.4683L24.0938 26.2808L25.7813 24.6308ZM13.0219 19.8776C11.7666 19.8795 10.539 19.5091 9.49419 18.8132C8.44942 18.1173 7.63447 17.1273 7.15237 15.9683C6.67028 14.8092 6.54271 13.5333 6.78579 12.3017C7.02886 11.0702 7.63167 9.93841 8.51799 9.04948C9.4043 8.16054 10.5343 7.55439 11.7651 7.30768C12.9959 7.06096 14.2723 7.18476 15.4327 7.66343C16.5932 8.1421 17.5856 8.95412 18.2845 9.99683C18.9835 11.0395 19.3575 12.2661 19.3594 13.5214C19.3606 14.3549 19.1977 15.1804 18.8799 15.9509C18.562 16.7214 18.0956 17.4218 17.5071 18.012C16.9186 18.6023 16.2196 19.0708 15.45 19.3909C14.6805 19.711 13.8554 19.8764 13.0219 19.8776Z" fill="white"/>
</g>
<defs>
<clipPath id="clip0_23_13305">
<rect width="30" height="30" fill="white" transform="translate(0 0.5)"/>
</clipPath>
</defs>
</svg>
